<svg width="111" height="111" viewBox="0 0 111 111" fill="none" xmlns="http://www.w3.org/2000/svg">
<rect width="111" height="111" rx="55.5" fill="white"/>
<path d="M90.9806 62.1645C90.9806 81.0174 75.626 96.299 56.6855 96.299C37.7449 96.299 22.3904 81.0163 22.3904 62.1645C22.3786 54.8258 24.7545 47.6806 29.1626 41.7979L90.2722 55.2298C90.7443 57.5114 90.9817 59.835 90.9806 62.1645V62.1645Z" fill="#37DD6E"/>
<path d="M93.0127 69.9839C93.0127 70.6292 92.7551 71.2481 92.2967 71.7044C91.8382 72.1607 91.2164 72.417 90.5681 72.417H87.6498V69.9839H93.0084H93.0127Z" fill="#0B0E25"/>
<path d="M89.5317 63.54C91.2716 63.54 92.9401 64.2279 94.1704 65.4524C95.4006 66.6769 96.0918 68.3377 96.0918 70.0693V70.0693H89.5317V63.54Z" fill="#0B0E25"/>
<path d="M64.9903 87.4729C79.4012 87.4729 91.0836 75.8453 91.0836 61.5018C91.0836 47.1584 79.4012 35.5308 64.9903 35.5308C50.5794 35.5308 38.8971 47.1584 38.8971 61.5018C38.8971 75.8453 50.5794 87.4729 64.9903 87.4729Z" fill="white"/>
<path d="M72.7884 73.5307C80.6364 73.5307 86.9984 67.4142 86.9984 59.8691C86.9984 52.324 80.6364 46.2075 72.7884 46.2075C64.9405 46.2075 58.5785 52.324 58.5785 59.8691C58.5785 67.4142 64.9405 73.5307 72.7884 73.5307Z" fill="#0B0E25"/>
<path d="M90.2723 55.23C90.2369 55.0582 90.1994 54.8876 90.1619 54.7169C83.3508 23.7273 44.6648 29.1326 22 19C24.213 32.3749 29.884 31.0238 29.0219 42.2228L90.2723 55.23Z" fill="#0B0E25"/>
</svg>
